<?xml version="1.0" encoding="UTF-8" standalone="no"?>
<!-- Created with Inkscape (http://www.inkscape.org/) -->

<svg
   version="1.1"
   id="svg1"
   width="947.35278"
   height="926.36993"
   viewBox="0 0 947.35278 926.36993"
   xmlns="http://www.w3.org/2000/svg"
   xmlns:svg="http://www.w3.org/2000/svg">
  <defs
     id="defs1" />
  <g
     id="g1"
     transform="translate(-56.611214,-30.74584)">
    <path
       id="path1"
       d="m 94.598,717.254 c -0.274,-0.277 -0.5,-76.348 -0.5,-169.047 V 379.668 l 11.812,-8.586 c 24.168,-17.566 145.996,-105.617 206.813,-149.477 16.086,-11.601 34.312,-24.761 40.5,-29.242 32.715,-23.695 43.261,-31.113 44.246,-31.113 1.113,0 12.804,8.262 64.879,45.844 16.293,11.761 36.375,26.222 44.625,32.14 8.25,5.918 18.543,13.356 22.875,16.524 4.328,3.172 21.375,15.488 37.875,27.375 16.5,11.887 35.398,25.555 42,30.371 6.597,4.82 27.226,19.75 45.839,33.18 45.645,32.929 45.047,32.472 45.473,34.464 0.625,2.911 0.192,334.664 -0.437,335.664 -0.844,1.34 -172.262,1.379 -173.602,0.04 -0.668,-0.668 -0.898,-7.938 -0.898,-28.067 0,-14.937 0.203,-27.695 0.453,-28.347 0.41,-1.071 6.117,-1.188 56.851,-1.188 42.864,0 56.61,-0.215 57.293,-0.898 0.696,-0.696 0.903,-29.438 0.903,-124.805 V 409.645 l -16.313,-11.856 c -8.973,-6.516 -21.207,-15.434 -27.187,-19.809 -5.985,-4.378 -23.364,-17.019 -38.625,-28.089 -15.266,-11.071 -31.969,-23.219 -37.125,-27 -5.157,-3.778 -18.153,-13.235 -28.875,-21.016 -10.727,-7.781 -26.082,-18.922 -34.125,-24.762 -8.047,-5.84 -24.922,-18.093 -37.5,-27.226 -12.582,-9.137 -23.27,-16.617 -23.75,-16.625 -0.481,-0.004 -4.868,2.906 -9.75,6.472 -4.883,3.567 -16.641,12.125 -26.125,19.02 -141.637,102.945 -203,147.601 -205.317,149.418 l -2.816,2.207 0.191,123.875 0.192,123.871 57.375,0.387 c 31.554,0.211 57.461,0.465 57.57,0.562 0.109,0.098 0.109,13.254 0,29.238 l -0.195,29.063 -87.063,0.191 c -47.883,0.106 -87.285,-0.035 -87.562,-0.312 z m 225,-0.004 c -0.278,-0.273 -0.5,-17.965 -0.5,-39.312 v -38.813 l -32.813,-32.504 c -18.047,-17.879 -37.539,-37.144 -43.312,-42.809 l -10.5,-10.3 -0.219,-22.481 -0.219,-22.484 -4.883,-2.332 c -5.789,-2.762 -12.554,-9.164 -15.476,-14.645 -9.418,-17.664 -2.555,-39.129 15.308,-47.879 16.411,-8.035 35.852,-2.453 45.172,12.973 3.426,5.676 4.942,11.215 4.942,18.086 0,13.574 -6.684,24.508 -19.125,31.293 l -5.25,2.863 -0.203,17.739 -0.2,17.738 32.825,32.48 c 18.054,17.864 37.636,37.282 43.515,43.149 l 10.688,10.676 v 42.343 c 0,23.289 -0.207,42.879 -0.457,43.531 -0.379,0.993 -1.953,1.188 -9.625,1.188 -5.043,0 -9.395,-0.227 -9.668,-0.5 z M 247.684,488.586 c 10.351,-4.324 12.824,-17.246 4.703,-24.582 -12.114,-10.949 -30.117,2.316 -23.356,17.207 3.16,6.965 11.625,10.309 18.653,7.375 z m 140.414,142.367 v -86.801 l -38.66,-38.261 -38.657,-38.266 0.031,-21.781 0.036,-21.782 -4.493,-2.062 c -6.871,-3.152 -12.925,-9.219 -16.593,-16.621 -2.641,-5.332 -3.125,-7.07 -3.461,-12.477 -0.703,-11.32 2.847,-20.316 11.004,-27.867 19.187,-17.765 49.558,-9.586 57.148,15.395 1.297,4.277 1.524,6.511 1.223,12.226 -0.317,6.059 -0.731,7.758 -3.086,12.723 -3.363,7.078 -8.652,12.453 -16.11,16.375 l -5.382,2.828 v 34.949 l 27.429,27.153 c 15.09,14.933 27.828,27.019 28.313,26.859 0.664,-0.223 0.93,-19.355 1.074,-78.043 l 0.188,-77.75 -5.063,-2.383 C 372.906,350.598 365.156,340.215 363.367,329 c -3.679,-23.035 16.988,-43.555 39.914,-39.625 24.16,4.145 36.719,29.613 25.231,51.168 -2.969,5.574 -9.629,11.875 -15.446,14.613 -2.39,1.125 -4.593,2.422 -4.894,2.883 -0.668,1.012 -0.754,149.652 -0.09,153.676 0.258,1.562 0.73,2.746 1.047,2.625 0.316,-0.117 12.926,-12.317 28.023,-27.106 l 27.446,-26.894 v -36.383 l -5.063,-2.488 c -8.988,-4.418 -15.98,-13.039 -18.539,-22.871 -6.105,-23.446 14.805,-46.141 39.024,-42.36 19.468,3.043 32.546,21.887 28.535,41.114 -2.164,10.355 -9.2,19.359 -18.914,24.199 l -5.168,2.574 -0.75,44.445 -7.875,7.809 c -4.332,4.297 -21.039,20.781 -37.125,36.633 -16.09,15.851 -29.657,29.672 -30.157,30.715 -0.687,1.445 -0.91,22.437 -0.937,87.961 l -0.031,86.062 h -19.5 z M 481.82,403.512 c 9.133,-4.657 10.856,-16.364 3.492,-23.739 -6.082,-6.089 -14.769,-6.265 -21,-0.421 -12.804,12.011 1.805,32.171 17.508,24.16 z m -152.328,-1.063 c 6.211,-4.308 8.063,-14.027 3.844,-20.187 -4.633,-6.758 -13.551,-8.664 -20.359,-4.348 -6.547,4.152 -8.817,13.906 -4.661,20.031 3.696,5.446 7.094,7.168 13.512,6.848 3.598,-0.18 5.281,-0.695 7.664,-2.344 z m 75.106,-65.347 c 4.316,-2.231 8.254,-8.387 8.246,-12.891 -0.02,-9.078 -7,-15.699 -15.879,-15.055 -12.641,0.914 -18.367,15.227 -9.863,24.641 4.328,4.789 11.867,6.215 17.496,3.305 z m 53,380.148 c -0.278,-0.273 -0.5,-19.969 -0.5,-43.762 v -43.261 l 43.125,-42.567 43.125,-42.562 V 508.52 l -5.368,-2.704 c -24.671,-12.421 -25.785,-47.32 -1.949,-60.957 10.707,-6.125 22.844,-6.105 34.492,0.063 11.567,6.121 18.887,21.199 16.981,34.973 -1.484,10.738 -9.274,21.324 -19.121,25.996 l -5.535,2.629 v 44.8 l -86.25,85.118 v 38.757 c 0,29.141 -0.227,38.977 -0.903,39.657 -0.961,0.96 -17.175,1.32 -18.097,0.398 z M 558.785,488.914 c 2.598,-0.785 6.668,-4.465 8.149,-7.367 2.918,-5.715 1.652,-12.813 -3.118,-17.442 -3.492,-3.394 -5.925,-4.359 -10.957,-4.343 -15.214,0.05 -20.375,21.242 -6.886,28.308 4.461,2.34 7.257,2.524 12.812,0.844 z M 42.527,311.836 l 0.196,-36.16 13.125,-9.469 c 19.668,-14.184 337.57,-241.016 339.8,-242.457 1.895,-1.223 2.028,-1.176 8.25,3.105 6.133,4.219 68.946,48.973 115.45,82.254 12.578,9.004 26.25,18.746 30.375,21.653 4.125,2.902 18.636,13.238 32.25,22.968 13.609,9.735 56.98,40.731 96.375,68.887 39.39,28.156 72.297,51.699 73.125,52.321 1.461,1.097 1.5,2.003 1.5,36.281 0,19.336 -0.274,35.429 -0.606,35.761 -0.937,0.934 2.504,3.313 -51.144,-35.351 -34.637,-24.957 -88.629,-63.813 -113.625,-81.766 -9.282,-6.668 -25.485,-18.304 -36,-25.863 -10.52,-7.559 -26.215,-18.812 -34.875,-25.012 -8.664,-6.199 -24.188,-17.336 -34.5,-24.754 -10.313,-7.414 -23.309,-16.742 -28.875,-20.726 -5.571,-3.985 -19.887,-14.254 -31.821,-22.824 -11.929,-8.571 -22.148,-15.754 -22.703,-15.969 -1.312,-0.504 -0.613,-0.981 -41.851,28.676 -19.391,13.945 -47.739,34.3 -63,45.234 -15.266,10.937 -39.059,28.039 -52.875,38.004 -13.821,9.961 -34.071,24.527 -45,32.367 -10.934,7.84 -27.301,19.602 -36.375,26.141 -9.078,6.539 -22.914,16.496 -30.75,22.129 C 111.68,299.699 94.664,311.953 66.191,332.477 54.348,341.016 44.137,348 43.496,348 c -1.039,0 -1.144,-3.906 -0.969,-36.164 z"
       style="fill:#2ebbbb;fill-opacity:1;fill-rule:nonzero;stroke:none"
       transform="scale(1.3333333)" />
    <path
       id="path2"
       d="m 95.195,716.066 c -0.199,-0.519 -0.273,-76.359 -0.168,-168.535 l 0.196,-167.593 10.125,-7.395 c 5.566,-4.066 20.922,-15.191 34.125,-24.723 13.199,-9.531 35.64,-25.769 49.875,-36.082 35.621,-25.808 40.605,-29.414 67.125,-48.511 12.785,-9.207 27.929,-20.141 33.656,-24.297 5.723,-4.157 13.484,-9.778 17.25,-12.492 3.762,-2.715 22.199,-16.016 40.969,-29.551 18.765,-13.539 37.121,-26.785 40.781,-29.438 3.664,-2.652 7.129,-5 7.695,-5.219 0.875,-0.335 1.008,5.106 0.844,34.704 l -0.195,35.101 -13.5,9.867 c -7.426,5.43 -61.934,45.055 -121.125,88.059 -59.196,43.004 -108.051,78.73 -108.567,79.387 -0.746,0.949 -0.902,26.777 -0.75,125.359 l 0.192,124.168 57.375,0.387 c 31.554,0.211 57.461,0.465 57.57,0.562 0.109,0.098 0.109,12.918 0,28.488 l -0.195,28.313 -86.461,0.191 c -68.774,0.153 -86.535,-0.004 -86.817,-0.75 z m 224.653,-38.32 v -39.301 l -43.125,-42.562 -43.125,-42.559 -0.012,-21.847 c -0.008,-12.02 -0.274,-22.258 -0.59,-22.758 -0.316,-0.5 -2.961,-2.102 -5.875,-3.559 -12.976,-6.492 -20.75,-21.332 -18.449,-35.219 2.855,-17.23 16.562,-28.941 33.875,-28.941 16.344,0 29.976,11.074 33.086,26.875 3.055,15.543 -4.375,30.742 -18.41,37.66 l -5.25,2.59 -0.215,18.375 -0.211,18.375 87.094,86.25 -0.211,42.75 -0.207,42.75 -18.375,0.422 z M 250.754,488.027 c 4.293,-2.843 6.848,-6.992 7.32,-11.882 0.328,-3.399 0.063,-4.657 -1.73,-8.141 -6.156,-11.953 -21.926,-11.906 -28.043,0.082 -1.719,3.375 -1.918,9.387 -0.418,12.875 1.16,2.707 4.945,6.492 8.34,8.34 3.515,1.914 10.66,1.285 14.531,-1.274 z m 138.129,142.535 0.031,-86.437 -38.469,-38.094 -38.472,-38.093 -0.18,-21.532 c -0.102,-11.844 -0.328,-21.918 -0.512,-22.39 -0.179,-0.469 -2.269,-1.746 -4.64,-2.832 -8.797,-4.028 -15.321,-11.61 -18.305,-21.27 -4.754,-15.391 2.766,-32.652 17.352,-39.832 19.667,-9.68 42.73,0.785 48.367,21.945 2.011,7.559 0.89,17.418 -2.809,24.668 -2.547,4.993 -10.058,11.95 -15.836,14.672 l -5.062,2.383 v 36.418 l 27.847,27.352 c 15.317,15.046 28.481,27.464 29.25,27.593 1.36,0.235 1.403,-2.051 1.403,-78.883 v -79.125 l -5.614,-2.699 c -7.273,-3.5 -12.207,-8.437 -15.906,-15.918 -2.832,-5.734 -2.855,-5.863 -2.855,-14.824 0,-8.598 0.113,-9.285 2.382,-14.094 6.422,-13.59 21.43,-21.675 36.024,-19.402 21.703,3.375 34.519,25.703 26.625,46.371 -3.059,8.008 -9.066,14.301 -17.156,17.973 -2.407,1.09 -4.645,2.351 -4.977,2.8 -0.328,0.446 -0.539,42.325 -0.465,93.063 0.074,50.738 0.09,131.484 0.035,179.437 L 406.848,717 h -18 z M 328.055,404.273 c 10.175,-5.191 11.5,-18.796 2.55,-26.171 -9.871,-8.137 -25.101,-0.758 -25.148,12.179 -0.016,4.559 0.777,6.832 3.531,10.102 4.453,5.293 12.926,7.019 19.067,3.89 z m 74.351,-65.378 c 8.832,-2.649 13.594,-13.016 9.766,-21.27 -1.629,-3.508 -5.559,-7.445 -8.563,-8.578 -2.605,-0.985 -8.785,-1.035 -11.257,-0.098 -5.372,2.043 -10.207,8.992 -10.239,14.715 -0.023,3.898 3.149,10.316 6.149,12.453 4.726,3.367 9.226,4.25 14.144,2.778 z M 43.098,312.133 c 0,-29.699 0.168,-35.445 1.078,-36.356 0.594,-0.593 7.933,-5.965 16.312,-11.933 8.379,-5.973 71.258,-50.852 139.735,-99.739 C 268.695,115.223 340.871,63.699 360.605,49.613 380.344,35.527 396.801,24 397.176,24 c 0.406,0 0.605,14.078 0.492,34.629 l -0.195,34.633 -14.25,10.242 c -7.84,5.637 -24.039,17.285 -36,25.887 -11.965,8.605 -37.11,26.656 -55.875,40.117 -40.571,29.097 -167.746,120.562 -213.649,153.656 -17.887,12.898 -32.992,23.629 -33.562,23.848 -0.879,0.336 -1.039,-5.106 -1.039,-34.879 z"
       style="fill:#11355c;fill-opacity:1;fill-rule:nonzero;stroke:none"
       transform="scale(1.3333333)" />
  </g>
</svg>
